<?xml version="1.0" standalone="no"?>
<!DOCTYPE svg PUBLIC "-//W3C//DTD SVG 20010904//EN"
 "http://www.w3.org/TR/2001/REC-SVG-20010904/DTD/svg10.dtd">
<svg version="1.0" xmlns="http://www.w3.org/2000/svg"
 width="1024.000000pt" height="1024.000000pt" viewBox="0 0 1024.000000 1024.000000"
 preserveAspectRatio="xMidYMid meet">

<g transform="translate(0.000000,1024.000000) scale(0.100000,-0.100000)"
fill="#000000" stroke="none">
<path d="M8123 8463 c9 -2 25 -2 35 0 9 3 1 5 -18 5 -19 0 -27 -2 -17 -5z"/>
<path d="M8058 8453 c7 -3 16 -2 19 1 4 3 -2 6 -13 5 -11 0 -14 -3 -6 -6z"/>
<path d="M7970 8430 c-18 -12 -2 -12 25 0 13 6 15 9 5 9 -8 0 -22 -4 -30 -9z"/>
<path d="M7794 8318 l-19 -23 23 19 c21 18 27 26 19 26 -2 0 -12 -10 -23 -22z"/>
<path d="M7699 8223 c-13 -16 -12 -17 4 -4 9 7 17 15 17 17 0 8 -8 3 -21 -13z"/>
<path d="M8239 8007 c-20 -13 -46 -45 -62 -77 -27 -51 -28 -61 -25 -150 5
-110 23 -155 87 -213 69 -62 136 -62 196 0 47 48 60 92 60 198 0 75 -4 97 -24
135 -61 118 -152 160 -232 107z"/>
<path d="M7415 7912 c-96 -10 -593 -116 -652 -138 -113 -42 -120 -184 -22
-489 82 -256 163 -324 356 -297 202 29 436 100 534 163 78 50 129 146 129 245
0 48 -75 364 -96 405 -16 33 -69 78 -109 94 -35 14 -98 22 -140 17z m-8 -279
c13 -9 36 -39 51 -67 22 -42 26 -64 27 -129 0 -74 -2 -80 -28 -103 -34 -29
-52 -30 -94 -5 -65 40 -114 172 -93 252 20 72 74 93 137 52z m-486 -123 c84
-89 95 -290 15 -290 -48 0 -122 110 -133 198 -14 124 44 170 118 92z"/>
<path d="M3502 7235 c-194 -34 -353 -138 -383 -249 -20 -74 -18 -70 -35 -55
-11 9 -15 25 -12 51 2 22 0 34 -5 29 -5 -5 -8 -27 -5 -50 3 -39 3 -40 -42 -57
-60 -23 -133 -93 -164 -159 -53 -112 -53 -196 -1 -487 40 -230 40 -228 157
-492 24 -55 48 -101 54 -103 5 -2 18 26 29 61 l21 65 -24 6 c-38 10 -108 82
-132 137 -41 95 -31 224 22 284 58 66 123 81 185 43 39 -24 60 -61 83 -144 15
-52 20 -60 41 -60 20 0 31 15 74 101 28 56 63 116 78 134 68 80 102 190 95
312 l-5 80 36 -7 c20 -3 140 -35 266 -71 274 -77 364 -94 500 -94 117 0 115 2
115 -97 0 -29 4 -53 8 -53 17 0 102 156 102 187 0 8 23 36 50 62 46 43 65 81
40 81 -5 0 0 21 10 46 38 87 18 198 -48 267 -50 53 -76 60 -218 63 -151 3
-172 7 -356 80 -236 94 -375 117 -536 89z"/>
<path d="M8150 7068 c-125 -93 -312 -197 -446 -249 l-62 -23 15 -51 c9 -27 23
-84 33 -126 14 -65 14 -76 2 -71 -12 4 -12 1 -3 -17 7 -12 10 -32 8 -44 -4
-18 -5 -17 -6 6 -1 25 -4 27 -28 21 -132 -29 -186 -60 -246 -142 -38 -52 -45
-80 -25 -100 17 -17 171 -15 292 4 186 30 282 65 553 201 139 70 250 129 247
132 -9 9 -148 0 -161 -11 -15 -12 -14 -13 -43 94 -22 85 -36 168 -53 324 l-12
100 -65 -48z m-407 -435 c-7 -2 -21 -2 -30 0 -10 3 -4 5 12 5 17 0 24 -2 18
-5z m84 -89 c-3 -3 -12 -4 -19 -1 -8 3 -5 6 6 6 11 1 17 -2 13 -5z m-50 -40
c-3 -3 -12 -4 -19 -1 -8 3 -5 6 6 6 11 1 17 -2 13 -5z"/>
<path d="M8889 6386 c-233 -82 -389 -346 -389 -654 0 -120 22 -211 74 -318 51
-102 133 -193 217 -238 51 -28 166 -53 180 -39 4 4 0 59 -9 121 l-17 114 34
30 c18 16 31 30 29 31 -1 1 -21 11 -43 22 -70 35 -158 132 -189 210 -57 139
-43 349 30 480 55 97 169 182 269 200 70 13 75 21 25 44 -59 27 -129 26 -211
-3z"/>
<path d="M3805 6273 c-50 -10 -106 -36 -115 -53 -15 -27 -3 -29 75 -13 41 9
98 13 137 10 60 -4 68 -2 74 15 11 35 -13 48 -85 47 -36 -1 -75 -3 -86 -6z"/>
<path d="M4270 6210 c-25 -25 -18 -40 17 -40 36 0 89 -28 108 -56 19 -30 35
-23 35 14 0 37 -26 71 -66 88 -46 19 -70 18 -94 -6z"/>
<path d="M3035 6170 c-3 -6 4 -10 18 -10 13 0 31 -8 40 -18 27 -30 57 -105 57
-145 0 -23 4 -36 10 -32 27 17 -7 130 -55 180 -32 35 -58 44 -70 25z"/>
<path d="M6937 6102 c-57 -67 -94 -141 -113 -230 -14 -71 -19 -194 -7 -206 4
-4 13 27 20 69 17 98 64 241 113 342 21 43 38 78 37 79 -1 1 -23 -24 -50 -54z"/>
<path d="M3816 6018 c-31 -48 -28 -138 4 -138 17 0 40 32 51 72 19 71 -21 118
-55 66z"/>
<path d="M4136 5956 c-7 -47 4 -127 29 -210 8 -27 15 -58 15 -68 0 -23 -54
-48 -105 -48 -19 0 -35 -5 -35 -11 0 -16 118 -2 148 17 28 19 28 42 -4 134
-19 53 -27 97 -28 152 -1 87 -10 101 -20 34z"/>
<path d="M4254 5955 c-25 -38 -30 -108 -10 -125 15 -11 20 -11 38 7 26 27 38
120 17 134 -21 13 -27 11 -45 -16z"/>
<path d="M5593 5891 c-32 -30 -36 -56 -19 -109 18 -52 54 -117 62 -109 3 2 -6
21 -19 40 -13 19 -30 56 -37 82 -12 42 -11 49 7 73 11 15 32 28 46 30 25 3 31
-4 75 -97 47 -97 48 -102 30 -118 -10 -9 -35 -17 -55 -18 l-38 -1 4 -42 c3
-42 2 -43 -26 -36 -15 4 -71 22 -123 41 -52 19 -101 35 -109 36 -8 1 -19 -13
-26 -33 -6 -19 -16 -35 -21 -35 -24 1 -127 41 -131 51 -2 6 2 28 11 47 13 32
13 36 -1 41 -19 8 -16 11 -34 -39 -15 -39 -17 -40 -58 -37 -38 2 -113 23 -194
54 -40 15 -52 43 -33 73 9 13 26 26 38 28 21 4 21 4 2 6 -28 1 -52 -19 -59
-50 -9 -39 19 -60 122 -92 48 -16 94 -30 102 -33 11 -4 11 -7 -3 -17 -13 -10
-17 -24 -14 -57 3 -40 0 -47 -25 -63 -23 -14 -32 -15 -43 -6 -17 14 -18 61 -3
92 10 21 10 21 -5 3 -19 -24 -20 -63 -3 -104 l12 -30 24 20 25 19 12 -28 c9
-19 13 -22 13 -10 1 28 46 39 109 27 64 -11 84 -25 80 -54 -3 -17 -15 -22 -78
-33 -41 -7 -79 -11 -85 -9 -5 1 -15 -4 -22 -13 -18 -25 -64 -3 -79 39 -7 19
-13 27 -13 18 -2 -29 20 -65 46 -77 16 -8 23 -17 19 -27 -10 -26 20 -83 48
-90 14 -3 26 -11 26 -17 0 -22 52 -85 78 -96 15 -6 43 -10 63 -8 35 2 38 5 53
54 10 30 26 57 36 63 11 6 20 17 20 25 0 39 138 80 230 69 54 -7 138 -47 191
-92 33 -28 39 -40 39 -73 0 -66 -26 -115 -74 -139 -23 -11 -52 -20 -64 -20
-17 0 -22 -6 -22 -28 0 -96 143 -73 228 36 34 44 82 125 82 138 -1 5 -10 -8
-21 -28 -25 -48 -34 -49 -14 -2 22 52 19 91 -9 121 -23 25 -25 25 -55 10 -17
-8 -31 -12 -31 -8 0 4 -27 26 -60 50 -78 54 -113 104 -134 187 -24 94 -16 121
43 146 71 32 75 37 49 65 -12 13 -43 65 -68 116 -37 76 -49 93 -70 95 -15 2
-34 -5 -47 -17z m-324 -292 c42 -18 43 -20 38 -56 -8 -48 -16 -55 -57 -43 -19
6 -59 10 -87 10 l-53 0 0 53 c0 30 3 57 7 60 11 11 104 -4 152 -24z m125 -61
c-9 -40 -21 -69 -31 -72 -12 -5 -13 -2 -8 11 5 10 17 44 28 76 11 31 21 56 23
54 2 -1 -4 -33 -12 -69z m216 38 c0 -3 -4 -8 -10 -11 -5 -3 -10 -1 -10 4 0 6
5 11 10 11 6 0 10 -2 10 -4z m-282 -178 c0 -28 -3 -36 -9 -26 -10 18 -7 78 3
72 4 -3 6 -23 6 -46z m-32 -32 c28 -43 15 -68 -41 -84 -27 -8 -56 -16 -64 -18
-8 -3 -11 -7 -8 -11 4 -3 34 2 68 12 63 17 78 13 79 -22 0 -6 3 -18 6 -26 4
-10 -8 -23 -36 -40 -27 -16 -37 -27 -28 -30 7 -3 -3 -3 -22 0 -19 3 -41 10
-48 16 -19 15 -42 63 -35 71 4 4 8 16 10 28 3 21 3 21 -17 3 -16 -15 -25 -17
-38 -9 -23 15 -36 55 -29 86 6 21 15 27 59 35 95 18 126 16 144 -11z m54 -42
c0 -25 -4 -43 -9 -39 -5 3 -8 18 -6 33 2 15 4 33 4 40 1 6 3 12 6 12 3 0 5
-21 5 -46z m40 -38 c-7 -7 -10 4 -9 30 1 39 1 39 10 9 5 -18 5 -33 -1 -39z"/>
<path d="M3760 5549 c0 -19 72 -81 115 -100 59 -25 119 -32 160 -19 42 14 49
36 8 24 -75 -22 -202 18 -245 77 -23 30 -38 37 -38 18z"/>
<path d="M3290 5432 c0 -21 70 -153 115 -217 86 -120 245 -244 301 -233 12 2
24 23 36 63 9 32 16 60 15 61 -1 1 -27 12 -57 24 -118 47 -261 149 -354 253
-31 34 -56 56 -56 49z"/>
<path d="M2873 5253 c16 -4 15 -6 -5 -25 -20 -17 -19 -17 10 2 39 26 40 30 5
29 -18 -1 -21 -3 -10 -6z"/>
<path d="M9441 5224 c0 -11 3 -14 6 -6 3 7 2 16 -1 19 -3 4 -6 -2 -5 -13z"/>
<path d="M9471 5074 c0 -11 3 -14 6 -6 3 7 2 16 -1 19 -3 4 -6 -2 -5 -13z"/>
<path d="M8235 4988 l-40 -43 43 40 c39 36 47 45 39 45 -2 0 -21 -19 -42 -42z"/>
<path d="M7468 5013 c23 -2 59 -2 80 0 20 2 1 4 -43 4 -44 0 -61 -2 -37 -4z"/>
<path d="M7218 5003 c12 -2 32 -2 45 0 12 2 2 4 -23 4 -25 0 -35 -2 -22 -4z"/>
<path d="M7159 4983 c-13 -16 -12 -17 4 -4 9 7 17 15 17 17 0 8 -8 3 -21 -13z"/>
<path d="M7625 4970 c10 -11 20 -20 23 -20 3 0 -3 9 -13 20 -10 11 -20 20 -23
20 -3 0 3 -9 13 -20z"/>
<path d="M2955 4940 c10 -11 20 -20 23 -20 3 0 -3 9 -13 20 -10 11 -20 20 -23
20 -3 0 3 -9 13 -20z"/>
<path d="M3830 4934 c0 -14 4 -23 9 -20 5 3 7 15 4 26 -7 28 -13 25 -13 -6z"/>
<path d="M2820 4896 c0 -2 8 -10 18 -17 15 -13 16 -12 3 4 -13 16 -21 21 -21
13z"/>
<path d="M3835 4889 c-4 -6 -5 -12 -2 -15 2 -3 7 2 10 11 7 17 1 20 -8 4z"/>
<path d="M7730 4875 c13 -14 26 -25 28 -25 3 0 -5 11 -18 25 -13 14 -26 25
-28 25 -3 0 5 -11 18 -25z"/>
<path d="M3820 4770 c-7 -25 -30 -63 -58 -94 l-46 -51 47 45 c43 41 88 123 74
136 -3 3 -11 -13 -17 -36z"/>
<path d="M7810 4807 c0 -2 15 -16 33 -33 l32 -29 -29 33 c-28 30 -36 37 -36
29z"/>
<path d="M7930 4696 c0 -2 8 -10 18 -17 15 -13 16 -12 3 4 -13 16 -21 21 -21
13z"/>
<path d="M4490 4686 c0 -2 8 -10 18 -17 15 -13 16 -12 3 4 -13 16 -21 21 -21
13z"/>
<path d="M4545 4630 c10 -11 20 -20 23 -20 3 0 -3 9 -13 20 -10 11 -20 20 -23
20 -3 0 3 -9 13 -20z"/>
<path d="M3690 4620 c-9 -6 -10 -10 -3 -10 6 0 15 5 18 10 8 12 4 12 -15 0z"/>
<path d="M3628 4593 c7 -3 16 -2 19 1 4 3 -2 6 -13 5 -11 0 -14 -3 -6 -6z"/>
<path d="M3568 4583 c6 -2 18 -2 25 0 6 3 1 5 -13 5 -14 0 -19 -2 -12 -5z"/>
<path d="M2066 4565 c4 -8 11 -15 16 -15 6 0 5 6 -2 15 -7 8 -14 15 -16 15 -2
0 -1 -7 2 -15z"/>
<path d="M6708 4493 c24 -43 27 -58 27 -143 0 -84 -3 -101 -27 -145 -49 -93
-125 -145 -209 -145 l-42 0 19 -21 c47 -53 149 -73 224 -44 34 13 34 14 8 14
-32 1 -45 32 -33 79 11 43 64 144 93 175 37 39 90 69 95 54 2 -7 7 -9 11 -6
11 10 -20 77 -62 132 -31 41 -103 97 -125 97 -3 0 6 -21 21 -47z"/>
<path d="M2151 4469 c24 -30 54 -69 67 -85 13 -16 5 -1 -18 32 -23 34 -53 72
-67 85 -14 13 -6 -1 18 -32z"/>
<path d="M7319 4368 c-18 -44 -15 -170 6 -239 8 -30 24 -112 35 -184 10 -71
24 -131 30 -133 5 -2 10 -8 10 -13 0 -6 -4 -8 -9 -5 -12 8 -3 -67 16 -126 l15
-48 62 0 c77 0 104 -17 112 -71 7 -40 7 -40 28 -21 11 10 71 35 131 55 205 68
382 90 458 58 139 -60 176 -176 92 -291 -65 -88 -144 -140 -215 -140 -30 0
-39 -3 -34 -12 5 -9 4 -10 -4 -3 -9 8 -9 18 0 41 15 40 4 84 -22 84 -10 0 -41
23 -69 51 -58 59 -61 59 -157 -8 l-65 -45 -20 26 c-11 14 -23 25 -27 25 -18
-3 -31 3 -62 31 -32 29 -70 40 -70 21 0 -5 9 -13 20 -16 21 -7 26 -20 11 -30
-14 -8 -91 -125 -83 -125 4 0 29 25 55 55 52 59 81 69 110 37 19 -21 22 -48 7
-57 -6 -3 -34 -39 -64 -78 -29 -40 -62 -80 -74 -91 -21 -18 -22 -18 -48 3
l-28 22 -23 -63 c-12 -35 -39 -111 -58 -170 l-36 -107 35 -75 c19 -41 46 -87
60 -101 24 -24 30 -25 150 -25 69 0 137 5 152 10 15 6 104 86 198 179 94 92
209 196 256 231 152 113 366 200 491 200 l48 0 -30 88 c-16 48 -33 92 -37 99
-6 9 -26 7 -86 -8 -89 -23 -152 -22 -149 1 1 8 8 34 14 57 32 108 -77 235
-203 237 -60 1 -63 20 -10 67 43 38 198 140 289 190 55 30 63 39 72 76 6 23
11 44 11 47 0 2 -39 2 -87 -1 -155 -10 -345 34 -466 108 -37 22 -72 37 -77 34
-6 -3 -10 -2 -10 4 0 13 -159 117 -230 150 -52 24 -66 26 -231 29 l-176 4 -14
-34z m8 -170 c-3 -7 -5 -2 -5 12 0 14 2 19 5 13 2 -7 2 -19 0 -25z m680 -30
c-3 -8 -6 -5 -6 6 -1 11 2 17 5 13 3 -3 4 -12 1 -19z m-627 -116 c4 -1 16 -10
26 -18 17 -13 15 -13 -13 0 -25 13 -35 26 -47 70 -9 30 -16 60 -15 68 0 7 10
-16 21 -52 11 -36 23 -66 28 -68z m559 34 c-8 -8 -25 -17 -39 -20 -18 -4 -16
-2 8 9 17 8 32 20 32 27 0 6 3 8 7 4 4 -3 0 -13 -8 -20z m-94 -41 c-16 -8 -37
-14 -45 -14 -8 0 1 7 20 14 46 18 64 17 25 0z m-435 -50 c0 -1 -11 0 -25 3
-14 2 -25 11 -25 18 0 12 5 11 25 -2 14 -9 25 -17 25 -19z m123 8 c-13 -2 -33
-2 -45 0 -13 2 -3 4 22 4 25 0 35 -2 23 -4z m145 0 c-10 -2 -28 -2 -40 0 -13
2 -5 4 17 4 22 1 32 -1 23 -4z m299 -15 c-3 -8 -6 -5 -6 6 -1 11 2 17 5 13 3
-3 4 -12 1 -19z m-600 -45 c-3 -10 -5 -2 -5 17 0 19 2 27 5 18 2 -10 2 -26 0
-35z m550 15 c-3 -7 -5 -2 -5 12 0 14 2 19 5 13 2 -7 2 -19 0 -25z m-324 5
c-13 -2 -35 -2 -50 0 -16 2 -5 4 22 4 28 0 40 -2 28 -4z m314 -65 c-3 -7 -5
-2 -5 12 0 14 2 19 5 13 2 -7 2 -19 0 -25z m-530 -15 c-3 -10 -5 -4 -5 12 0
17 2 24 5 18 2 -7 2 -21 0 -30z m880 31 c-3 -3 -12 -4 -19 -1 -8 3 -5 6 6 6
11 1 17 -2 13 -5z m-40 -10 c-3 -3 -12 -4 -19 -1 -8 3 -5 6 6 6 11 1 17 -2 13
-5z m-320 -71 c-3 -10 -5 -2 -5 17 0 19 2 27 5 18 2 -10 2 -26 0 -35z m-453
-39 c17 -7 23 -13 14 -14 -20 0 -78 47 -78 63 0 6 7 1 16 -12 9 -13 31 -29 48
-37z m386 -3 c-8 -5 -37 -11 -65 -14 -58 -7 -49 -1 16 12 59 12 67 12 49 2z
m-273 -27 c-3 -3 -12 -4 -19 -1 -8 3 -5 6 6 6 11 1 17 -2 13 -5z m146 -1 c-7
-2 -21 -2 -30 0 -10 3 -4 5 12 5 17 0 24 -2 18 -5z m-306 -25 c-3 -8 -6 -5 -6
6 -1 11 2 17 5 13 3 -3 4 -12 1 -19z m270 -14 c-3 -3 -12 -4 -19 -1 -8 3 -5 6
6 6 11 1 17 -2 13 -5z m460 0 c-3 -3 -12 -4 -19 -1 -8 3 -5 6 6 6 11 1 17 -2
13 -5z m-715 -29 c3 -13 1 -22 -3 -19 -9 5 -13 44 -5 44 2 0 6 -11 8 -25z
m753 15 c-27 -12 -43 -12 -25 0 8 5 22 9 30 9 10 0 8 -3 -5 -9z m5 -24 c0 -2
-7 -7 -16 -10 -8 -3 -12 -2 -9 4 6 10 25 14 25 6z m-305 -46 c-3 -5 -11 -10
-16 -10 -6 0 -7 5 -4 10 3 6 11 10 16 10 6 0 7 -4 4 -10z m78 -332 c-20 -10
-46 -27 -58 -38 -29 -27 -41 -25 -81 10 l-34 29 45 38 c65 54 82 56 128 14
l38 -35 -38 -18z m464 56 c-3 -3 -12 -4 -19 -1 -8 3 -5 6 6 6 11 1 17 -2 13
-5z m-626 -100 l37 -25 -63 -97 c-88 -133 -100 -145 -133 -137 -65 16 -68 49
-11 131 49 70 118 154 127 154 3 0 23 -12 43 -26z m231 0 c14 -29 5 -49 -32
-73 -13 -9 -21 -11 -17 -4 5 7 -2 19 -18 29 -33 21 -32 30 8 54 41 26 45 25
59 -6z m-332 3 c0 -2 -10 -12 -22 -23 l-23 -19 19 23 c18 21 26 27 26 19z
m238 -56 c27 -23 28 -41 3 -72 -10 -13 -28 -43 -40 -67 -43 -84 -94 -107 -127
-57 -16 25 -16 27 22 83 42 62 103 132 113 132 3 -1 16 -9 29 -19z"/>
<path d="M9342 4349 c-57 -11 -96 -31 -100 -52 -3 -13 3 -17 25 -17 58 0 106
-22 158 -71 l53 -50 21 34 c21 34 104 87 137 87 11 0 32 -7 47 -15 27 -14 28
-14 21 8 -11 36 -24 46 -78 61 -61 17 -224 25 -284 15z"/>
<path d="M2246 4337 c3 -10 9 -15 12 -12 3 3 0 11 -7 18 -10 9 -11 8 -5 -6z"/>
<path d="M2260 4303 c0 -5 9 -21 20 -38 24 -36 26 -26 5 15 -15 29 -25 38 -25
23z"/>
<path d="M2304 4216 c24 -74 48 -185 58 -261 14 -113 -2 -286 -73 -774 -45
-307 -49 -349 -38 -391 14 -54 5 -118 -17 -127 -8 -3 -25 4 -38 16 -57 53
-239 99 -344 86 -104 -13 -91 -20 36 -20 106 0 138 -4 192 -23 36 -12 76 -31
90 -42 l25 -20 -25 -1 c-35 -1 315 -76 893 -191 32 -6 64 -16 71 -23 19 -20
76 -34 166 -41 47 -4 94 -10 105 -14 17 -6 14 -9 -18 -25 -126 -60 -217 -320
-157 -448 23 -48 84 -87 94 -60 3 7 15 17 28 22 18 7 15 9 -28 20 -27 7 -57
19 -66 28 -56 50 -5 264 82 348 18 17 50 32 94 42 60 13 65 16 56 34 -18 33
-67 50 -188 64 -88 10 -128 20 -162 38 -33 19 -116 39 -315 77 -249 48 -517
104 -556 116 -15 4 -15 9 -3 45 12 33 12 51 3 97 -11 50 -8 83 19 272 88 600
105 767 91 886 -9 81 -51 243 -70 273 -9 13 -10 13 -5 -3z"/>
<path d="M4480 4064 c0 -31 -52 -294 -97 -493 -80 -354 -78 -344 -114 -484
-17 -70 -29 -130 -26 -134 4 -3 8 -4 10 -2 5 6 121 490 162 672 43 194 85 447
73 447 -4 0 -8 -3 -8 -6z"/>
<path d="M1391 3974 c0 -11 3 -14 6 -6 3 7 2 16 -1 19 -3 4 -6 -2 -5 -13z"/>
<path d="M1228 3910 c-347 -26 -476 -100 -523 -302 l-17 -73 41 -270 c52 -336
80 -526 132 -870 92 -618 103 -690 110 -695 4 -3 -77 -5 -179 -5 -113 0 -188
-4 -190 -10 -2 -5 2 -11 10 -13 10 -3 10 -2 0 5 -7 6 195 9 495 8 412 -1 450
0 198 4 l-310 6 302 3 301 2 6 30 c19 97 16 92 44 86 134 -26 614 -76 729 -76
98 0 279 13 563 39 58 6 152 11 210 11 58 0 111 4 118 9 19 11 -157 3 -519
-25 -437 -33 -416 -34 -927 31 -246 31 -282 38 -354 65 -108 40 -181 143 -215
306 -21 98 -24 521 -5 719 17 175 67 579 99 800 14 99 26 189 27 200 1 24 -5
25 -146 15z m-281 -792 c-3 -7 -5 -2 -5 12 0 14 2 19 5 13 2 -7 2 -19 0 -25z"/>
<path d="M9110 3850 c-8 -5 -10 -10 -5 -10 6 0 17 5 25 10 8 5 11 10 5 10 -5
0 -17 -5 -25 -10z"/>
<path d="M8770 3690 c-19 -11 -30 -19 -25 -19 6 0 26 8 45 19 19 11 31 19 25
19 -5 0 -26 -8 -45 -19z"/>
<path d="M7646 3515 c-21 -16 -10 -21 13 -6 9 6 24 4 40 -6 l26 -15 -24 21
c-27 25 -30 25 -55 6z"/>
<path d="M7586 3483 c-3 -7 -2 -13 3 -13 5 0 14 6 20 13 8 10 7 14 -4 14 -8 0
-16 -6 -19 -14z"/>
<path d="M7695 3435 c-58 -51 -50 -60 11 -12 23 17 50 37 60 44 18 11 18 12
-1 12 -11 0 -42 -19 -70 -44z"/>
<path d="M7850 3440 c14 -11 30 -20 35 -20 6 0 -1 9 -15 20 -14 11 -29 20 -35
20 -5 0 1 -9 15 -20z"/>
<path d="M3495 2953 c-43 -39 -44 -41 -9 -15 37 28 72 63 63 62 -2 -1 -26 -21
-54 -47z"/>
<path d="M8670 2925 c-120 -34 -252 -127 -337 -237 -109 -142 -212 -364 -238
-512 -15 -86 -13 -114 11 -258 7 -42 18 -42 28 -1 11 43 119 251 188 364 249
404 294 460 407 517 106 53 194 52 261 -4 38 -33 38 -20 0 38 -60 90 -192 128
-320 93z m-543 -987 c-3 -8 -6 -5 -6 6 -1 11 2 17 5 13 3 -3 4 -12 1 -19z"/>
<path d="M3390 2874 c-64 -50 -73 -63 -17 -24 42 30 77 61 66 59 -2 0 -24 -16
-49 -35z"/>
<path d="M4795 2870 c-3 -5 -1 -10 4 -10 6 0 11 5 11 10 0 6 -2 10 -4 10 -3 0
-8 -4 -11 -10z"/>
<path d="M4759 2843 c-13 -16 -12 -17 4 -4 16 13 21 21 13 21 -2 0 -10 -8 -17
-17z"/>
<path d="M3277 2795 c-20 -14 -37 -28 -37 -31 0 -2 18 8 40 22 35 23 47 34 37
34 -1 0 -19 -11 -40 -25z"/>
<path d="M3178 2730 c-51 -32 -67 -53 -20 -24 34 19 79 54 72 54 -3 0 -26 -14
-52 -30z"/>
<path d="M1905 2651 c-83 -24 -294 -135 -282 -148 3 -2 29 11 58 30 136 87
223 118 354 127 l100 7 -85 1 c-54 0 -107 -6 -145 -17z"/>
<path d="M8931 2648 c2 -2 22 -19 44 -38 l40 -35 -34 38 c-19 20 -39 37 -45
37 -5 0 -7 -1 -5 -2z"/>
<path d="M8751 2554 c0 -11 3 -14 6 -6 3 7 2 16 -1 19 -3 4 -6 -2 -5 -13z"/>
<path d="M4255 2471 c142 -69 191 -113 268 -243 29 -49 53 -81 55 -72 5 19
-106 189 -151 231 -40 39 -144 96 -222 123 -32 11 -61 20 -64 19 -3 0 48 -26
114 -58z"/>
<path d="M7219 2431 c-26 -77 -26 -79 -9 -132 38 -123 109 -226 208 -303 96
-73 180 -109 282 -121 l55 -6 -50 26 c-187 99 -342 291 -421 520 -15 44 -30
83 -33 87 -4 4 -18 -27 -32 -71z"/>
<path d="M8743 2445 c0 -27 2 -38 4 -22 2 15 2 37 0 50 -2 12 -4 0 -4 -28z"/>
<path d="M3088 2423 c7 -3 16 -2 19 1 4 3 -2 6 -13 5 -11 0 -14 -3 -6 -6z"/>
<path d="M4061 2417 c9 -7 65 -30 124 -52 l107 -39 74 -94 c42 -53 91 -128
110 -169 19 -40 39 -73 44 -73 12 0 13 17 1 24 -5 3 -24 38 -43 78 -36 76
-141 216 -181 242 -21 15 -233 96 -246 96 -3 0 1 -6 10 -13z"/>
<path d="M3035 2391 c-96 -58 -180 -259 -161 -384 9 -58 49 -137 88 -172 l32
-30 -33 39 c-53 63 -71 111 -71 197 0 131 46 247 131 323 57 51 59 55 14 27z"/>
<path d="M3950 2290 c-11 -7 45 -30 156 -65 30 -9 64 -29 84 -50 19 -20 40
-33 48 -30 7 2 11 1 8 -4 -3 -4 11 -23 31 -42 19 -19 53 -56 74 -82 22 -27 39
-43 39 -35 0 20 -35 65 -126 161 -66 70 -88 87 -125 96 -24 7 -74 22 -111 35
-37 12 -72 20 -78 16z"/>
<path d="M8833 2248 c22 -21 44 -38 51 -38 6 0 -1 7 -14 17 -14 9 -37 26 -51
37 -14 12 -7 4 14 -16z"/>
<path d="M8989 2243 c-13 -16 -12 -17 4 -4 16 13 21 21 13 21 -2 0 -10 -8 -17
-17z"/>
<path d="M8950 2220 c-9 -6 -10 -10 -3 -10 6 0 15 5 18 10 8 12 4 12 -15 0z"/>
<path d="M8908 2203 c7 -3 16 -2 19 1 4 3 -2 6 -13 5 -11 0 -14 -3 -6 -6z"/>
<path d="M3926 2105 c4 -8 2 -15 -4 -15 -6 0 -30 -16 -54 -36 -66 -56 -146
-104 -223 -137 -38 -16 -72 -32 -75 -34 -3 -3 26 -2 64 2 38 4 76 13 83 21 8
8 23 14 33 14 10 0 21 4 24 9 3 5 46 32 96 62 50 29 102 68 117 87 l26 34 -31
-6 c-18 -4 -33 -3 -37 3 -10 17 -25 13 -19 -4z"/>
<path d="M3918 1863 c7 -3 16 -2 19 1 4 3 -2 6 -13 5 -11 0 -14 -3 -6 -6z"/>
<path d="M3968 1863 c12 -2 32 -2 45 0 12 2 2 4 -23 4 -25 0 -35 -2 -22 -4z"/>
<path d="M4411 1827 c-1 -31 6 -62 20 -88 l20 -41 -513 7 c-282 3 -522 9 -533
12 -15 4 -17 2 -9 -6 13 -14 328 -30 594 -31 96 0 182 -1 190 -1 8 -1 620 -3
1360 -5 902 -3 1340 -1 1330 6 -10 6 -411 10 -1161 10 -826 0 -1155 3 -1180
11 -55 19 -102 73 -110 128 l-6 46 -2 -48z"/>
<path d="M3895 1810 c-11 -34 3 -40 96 -40 l90 0 -3 28 c-3 27 -3 27 -90 30
-79 3 -87 1 -93 -18z"/>
<path d="M4452 1790 c0 -14 2 -19 5 -12 2 6 2 18 0 25 -3 6 -5 1 -5 -13z"/>
<path d="M3360 1690 c-11 -7 -7 -10 18 -10 20 0 31 4 27 10 -8 13 -26 13 -45
0z"/>
<path d="M6954 1693 c9 -10 1586 -11 1592 -1 3 4 -356 8 -797 8 -441 0 -799
-3 -795 -7z"/>
<path d="M8738 1688 c-13 -3 10 -6 51 -7 41 -1 71 2 68 5 -9 9 -91 10 -119 2z"/>
<path d="M8925 1690 c-4 -6 138 -9 395 -7 220 1 400 5 400 10 0 11 -788 9
-795 -3z"/>
<path d="M8623 1683 c15 -2 39 -2 55 0 15 2 2 4 -28 4 -30 0 -43 -2 -27 -4z"/>
<path d="M3588 1673 c6 -2 18 -2 25 0 6 3 1 5 -13 5 -14 0 -19 -2 -12 -5z"/>
</g>
</svg>
